{
    "asset" : {
        "generator" : "Khronos glTF Blender I/O v1.5.17",
        "version" : "2.0"
    },
    "extensionsUsed" : [
        "KHR_materials_clearcoat"
    ],
    "scene" : 0,
    "scenes" : [
        {
            "name" : "Scene",
            "nodes" : [
                0,
                1,
                2,
                3,
                4
            ]
        }
    ],
    "nodes" : [
        {
            "mesh" : 0,
            "name" : "Cube",
            "scale" : [
                1.0958583354949951,
                2.2478976249694824,
                0.0878896489739418
            ]
        },
        {
            "name" : "Light",
            "rotation" : [
                0.16907575726509094,
                0.7558803558349609,
                -0.27217137813568115,
                0.570947527885437
            ],
            "translation" : [
                4.076245307922363,
                5.903861999511719,
                -1.0054539442062378
            ]
        },
        {
            "name" : "Camera",
            "rotation" : [
                0.483536034822464,
                0.33687159419059753,
                -0.20870360732078552,
                0.7804827094078064
            ],
            "translation" : [
                7.358891487121582,
                4.958309173583984,
                6.925790786743164
            ]
        },
        {
            "mesh" : 1,
            "name" : "Cube.001",
            "scale" : [
                0.057829417288303375,
                0.11836743354797363,
                -0.05208110809326172
            ],
            "translation" : [
                1.0545645952224731,
                1.6830257177352905,
                0
            ]
        },
        {
            "mesh" : 2,
            "name" : "Cube.002",
            "scale" : [
                1.0958583354949951,
                2.2478976249694824,
                0.0878896489739418
            ],
            "translation" : [
                0,
                0,
                0.0033746957778930664
            ]
        }
    ],
    "materials" : [
        {
            "doubleSided" : true,
            "name" : "Material.002",
            "pbrMetallicRoughness" : {
                "baseColorFactor" : [
                    0.004895646590739489,
                    0.004895646590739489,
                    0.004895646590739489,
                    1
                ],
                "metallicFactor" : 0.7475247383117676,
                "roughnessFactor" : 0.5
            }
        },
        {
            "doubleSided" : true,
            "extensions" : {
                "KHR_materials_clearcoat" : {
                    "clearcoatFactor" : 0.3316831588745117,
                    "clearcoatRoughnessFactor" : 0.029999999329447746
                }
            },
            "name" : "Material.003",
            "pbrMetallicRoughness" : {
                "baseColorFactor" : [
                    0.20791643857955933,
                    0.20791643857955933,
                    0.20791643857955933,
                    1
                ],
                "metallicFactor" : 0.7178217768669128,
                "roughnessFactor" : 0.06435644626617432
            }
        },
        {
            "doubleSided" : true,
            "extensions" : {
                "KHR_materials_clearcoat" : {
                    "clearcoatFactor" : 0.22772277891635895,
                    "clearcoatRoughnessFactor" : 0.029999999329447746
                }
            },
            "name" : "Material",
            "pbrMetallicRoughness" : {
                "baseColorTexture" : {
                    "index" : 0
                },
                "metallicFactor" : 0,
                "roughnessFactor" : 0.15742573142051697
            }
        }
    ],
    "meshes" : [
        {
            "name" : "Cube",
            "primitives" : [
                {
                    "attributes" : {
                        "POSITION" : 0,
                        "NORMAL" : 1,
                        "TEXCOORD_0" : 2
                    },
                    "indices" : 3,
                    "material" : 0
                }
            ]
        },
        {
            "name" : "Cube.001",
            "primitives" : [
                {
                    "attributes" : {
                        "POSITION" : 4,
                        "NORMAL" : 5,
                        "TEXCOORD_0" : 6
                    },
                    "indices" : 7,
                    "material" : 1
                }
            ]
        },
        {
            "name" : "Cube.004",
            "primitives" : [
                {
                    "attributes" : {
                        "POSITION" : 8,
                        "NORMAL" : 9,
                        "TEXCOORD_0" : 10
                    },
                    "indices" : 11,
                    "material" : 2
                }
            ]
        }
    ],
    "textures" : [
        {
            "sampler" : 0,
            "source" : 0
        }
    ],
    "images" : [
        {
            "bufferView" : 12,
            "mimeType" : "image/png",
            "name" : "screen"
        }
    ],
    "accessors" : [
        {
            "bufferView" : 0,
            "componentType" : 5126,
            "count" : 2732,
            "max" : [
                1,
                1,
                1.119262933731079
            ],
            "min" : [
                -1,
                -1.004696249961853,
                -1
            ],
            "type" : "VEC3"
        },
        {
            "bufferView" : 1,
            "componentType" : 5126,
            "count" : 2732,
            "type" : "VEC3"
        },
        {
            "bufferView" : 2,
            "componentType" : 5126,
            "count" : 2732,
            "type" : "VEC2"
        },
        {
            "bufferView" : 3,
            "componentType" : 5123,
            "count" : 4134,
            "type" : "SCALAR"
        },
        {
            "bufferView" : 4,
            "componentType" : 5126,
            "count" : 1200,
            "max" : [
                1,
                0.6763131022453308,
                1
            ],
            "min" : [
                0.47020041942596436,
                -3.6710472106933594,
                -1
            ],
            "type" : "VEC3"
        },
        {
            "bufferView" : 5,
            "componentType" : 5126,
            "count" : 1200,
            "type" : "VEC3"
        },
        {
            "bufferView" : 6,
            "componentType" : 5126,
            "count" : 1200,
            "type" : "VEC2"
        },
        {
            "bufferView" : 7,
            "componentType" : 5123,
            "count" : 1800,
            "type" : "SCALAR"
        },
        {
            "bufferView" : 8,
            "componentType" : 5126,
            "count" : 4,
            "max" : [
                0.9536885619163513,
                0.906609833240509,
                1.119262933731079
            ],
            "min" : [
                -0.9536885619163513,
                -0.9248093962669373,
                1.119262933731079
            ],
            "type" : "VEC3"
        },
        {
            "bufferView" : 9,
            "componentType" : 5126,
            "count" : 4,
            "type" : "VEC3"
        },
        {
            "bufferView" : 10,
            "componentType" : 5126,
            "count" : 4,
            "type" : "VEC2"
        },
        {
            "bufferView" : 11,
            "componentType" : 5123,
            "count" : 6,
            "type" : "SCALAR"
        }
    ],
    "bufferViews" : [
        {
            "buffer" : 0,
            "byteLength" : 32784,
            "byteOffset" : 0
        },
        {
            "buffer" : 0,
            "byteLength" : 32784,
            "byteOffset" : 32784
        },
        {
            "buffer" : 0,
            "byteLength" : 21856,
            "byteOffset" : 65568
        },
        {
            "buffer" : 0,
            "byteLength" : 8268,
            "byteOffset" : 87424
        },
        {
            "buffer" : 0,
            "byteLength" : 14400,
            "byteOffset" : 95692
        },
        {
            "buffer" : 0,
            "byteLength" : 14400,
            "byteOffset" : 110092
        },
        {
            "buffer" : 0,
            "byteLength" : 9600,
            "byteOffset" : 124492
        },
        {
            "buffer" : 0,
            "byteLength" : 3600,
            "byteOffset" : 134092
        },
        {
            "buffer" : 0,
            "byteLength" : 48,
            "byteOffset" : 137692
        },
        {
            "buffer" : 0,
            "byteLength" : 48,
            "byteOffset" : 137740
        },
        {
            "buffer" : 0,
            "byteLength" : 32,
            "byteOffset" : 137788
        },
        {
            "buffer" : 0,
            "byteLength" : 12,
            "byteOffset" : 137820
        },
        {
            "buffer" : 0,
            "byteLength" : 96050,
            "byteOffset" : 137832
        }
    ],
    "samplers" : [
        {
            "magFilter" : 9729,
            "minFilter" : 9987
        }
    ],
    "buffers" : [
        {
            "byteLength" : 233884,
            "uri" : "data:application/octet-stream;base64,"
        }
    ]
}
