{
    "asset" : {
        "generator" : "Khronos glTF Blender I/O v1.5.17",
        "version" : "2.0"
    },
    "extensionsUsed" : [
        "KHR_materials_clearcoat"
    ],
    "scene" : 0,
    "scenes" : [
        {
            "name" : "Scene",
            "nodes" : [
                0,
                1,
                2,
                3
            ]
        }
    ],
    "nodes" : [
        {
            "name" : "Light",
            "rotation" : [
                0.16907575726509094,
                0.7558803558349609,
                -0.27217137813568115,
                0.570947527885437
            ],
            "scale" : [
                4.923605918884277,
                2.155414342880249,
                2.7557177543640137
            ],
            "translation" : [
                11.876760482788086,
                4.897113800048828,
                -3.8260416984558105
            ]
        },
        {
            "name" : "Camera",
            "rotation" : [
                0.483536034822464,
                0.33687159419059753,
                -0.20870360732078552,
                0.7804827094078064
            ],
            "scale" : [
                0.8568324446678162,
                0.805048942565918,
                0.6983404159545898
            ],
            "translation" : [
                8.740177154541016,
                4.27349853515625,
                2.6711325645446777
            ]
        },
        {
            "mesh" : 0,
            "name" : "Curve",
            "rotation" : [
                0.7071068286895752,
                0,
                0,
                0.7071068286895752
            ],
            "scale" : [
                40.51169204711914,
                1.5620018243789673,
                40.51169204711914
            ],
            "translation" : [
                0.04639396816492081,
                -0.19655248522758484,
                -0.22620923817157745
            ]
        },
        {
            "mesh" : 1,
            "name" : "Curve.001",
            "rotation" : [
                0.7071068286895752,
                0,
                0,
                0.7071068286895752
            ],
            "scale" : [
                40.51169204711914,
                1.5620018243789673,
                40.51169204711914
            ],
            "translation" : [
                -0.05077581852674484,
                -0.009422697126865387,
                -0.23873232305049896
            ]
        }
    ],
    "materials" : [
        {
            "doubleSided" : true,
            "emissiveFactor" : [
                1,
                1,
                1
            ],
            "extensions" : {
                "KHR_materials_clearcoat" : {
                    "clearcoatFactor" : 0.3217821717262268,
                    "clearcoatRoughnessFactor" : 0.029999999329447746
                }
            },
            "name" : "SVGMat.006",
            "pbrMetallicRoughness" : {
                "baseColorFactor" : [
                    0.800000011920929,
                    0.800000011920929,
                    0.800000011920929,
                    1
                ],
                "metallicFactor" : 0.11386139690876007,
                "roughnessFactor" : 0.10891090333461761
            }
        },
        {
            "doubleSided" : true,
            "name" : "Material.001",
            "pbrMetallicRoughness" : {
                "baseColorFactor" : [
                    0.8000000715255737,
                    0.12108690291643143,
                    0.008158312179148197,
                    1
                ],
                "metallicFactor" : 0,
                "roughnessFactor" : 0.5
            }
        }
    ],
    "meshes" : [
        {
            "name" : "Curve.003",
            "primitives" : [
                {
                    "attributes" : {
                        "POSITION" : 0,
                        "NORMAL" : 1,
                        "TEXCOORD_0" : 2
                    },
                    "indices" : 3,
                    "material" : 0
                }
            ]
        },
        {
            "name" : "Curve.001",
            "primitives" : [
                {
                    "attributes" : {
                        "POSITION" : 4,
                        "NORMAL" : 5,
                        "TEXCOORD_0" : 6
                    },
                    "indices" : 7,
                    "material" : 1
                }
            ]
        }
    ],
    "accessors" : [
        {
            "bufferView" : 0,
            "componentType" : 5126,
            "count" : 37645,
            "max" : [
                0.04604854807257652,
                0.015034772455692291,
                0.013806796632707119
            ],
            "min" : [
                -0.04031350091099739,
                -0.024965258315205574,
                -0.02237679809331894
            ],
            "type" : "VEC3"
        },
        {
            "bufferView" : 1,
            "componentType" : 5126,
            "count" : 37645,
            "type" : "VEC3"
        },
        {
            "bufferView" : 2,
            "componentType" : 5126,
            "count" : 37645,
            "type" : "VEC2"
        },
        {
            "bufferView" : 3,
            "componentType" : 5123,
            "count" : 51420,
            "type" : "SCALAR"
        },
        {
            "bufferView" : 4,
            "componentType" : 5126,
            "count" : 19034,
            "max" : [
                0.0006441301666200161,
                0.01999826356768608,
                0.006949953269213438
            ],
            "min" : [
                -0.022158706560730934,
                -0.020001772791147232,
                -0.015559248626232147
            ],
            "type" : "VEC3"
        },
        {
            "bufferView" : 5,
            "componentType" : 5126,
            "count" : 19034,
            "type" : "VEC3"
        },
        {
            "bufferView" : 6,
            "componentType" : 5126,
            "count" : 19034,
            "type" : "VEC2"
        },
        {
            "bufferView" : 7,
            "componentType" : 5123,
            "count" : 25248,
            "type" : "SCALAR"
        }
    ],
    "bufferViews" : [
        {
            "buffer" : 0,
            "byteLength" : 451740,
            "byteOffset" : 0
        },
        {
            "buffer" : 0,
            "byteLength" : 451740,
            "byteOffset" : 451740
        },
        {
            "buffer" : 0,
            "byteLength" : 301160,
            "byteOffset" : 903480
        },
        {
            "buffer" : 0,
            "byteLength" : 102840,
            "byteOffset" : 1204640
        },
        {
            "buffer" : 0,
            "byteLength" : 228408,
            "byteOffset" : 1307480
        },
        {
            "buffer" : 0,
            "byteLength" : 228408,
            "byteOffset" : 1535888
        },
        {
            "buffer" : 0,
            "byteLength" : 152272,
            "byteOffset" : 1764296
        },
        {
            "buffer" : 0,
            "byteLength" : 50496,
            "byteOffset" : 1916568
        }
    ],
    "buffers" : [
        {
            "byteLength" : 1967064,
            "uri" : "data:application/octet-stream;base64,"
        }
    ]
}
