{
    "asset" : {
        "generator" : "Khronos glTF Blender I/O v1.5.17",
        "version" : "2.0"
    },
    "extensionsUsed" : [
        "KHR_materials_clearcoat"
    ],
    "scene" : 0,
    "scenes" : [
        {
            "name" : "Scene",
            "nodes" : [
                0,
                1,
                2,
                3
            ]
        }
    ],
    "nodes" : [
        {
            "name" : "Light",
            "rotation" : [
                0.16907575726509094,
                0.7558803558349609,
                -0.27217137813568115,
                0.570947527885437
            ],
            "translation" : [
                4.076245307922363,
                5.903861999511719,
                -1.0054539442062378
            ]
        },
        {
            "name" : "Camera",
            "rotation" : [
                0.483536034822464,
                0.33687159419059753,
                -0.20870360732078552,
                0.7804827094078064
            ],
            "translation" : [
                7.358891487121582,
                4.958309173583984,
                6.925790786743164
            ]
        },
        {
            "mesh" : 0,
            "name" : "Curve",
            "scale" : [
                33.64284133911133,
                1,
                33.64284133911133
            ],
            "translation" : [
                -0.0741572380065918,
                0,
                0.03723764419555664
            ]
        },
        {
            "mesh" : 1,
            "name" : "Curve.001",
            "scale" : [
                33.64284133911133,
                1,
                33.64284133911133
            ],
            "translation" : [
                -0.0741572380065918,
                0,
                0.03723764419555664
            ]
        }
    ],
    "materials" : [
        {
            "doubleSided" : true,
            "extensions" : {
                "KHR_materials_clearcoat" : {
                    "clearcoatFactor" : 0.3910891115665436,
                    "clearcoatRoughnessFactor" : 0.029999999329447746
                }
            },
            "name" : "SVGMat.006",
            "pbrMetallicRoughness" : {
                "baseColorFactor" : [
                    0.800000011920929,
                    0.800000011920929,
                    0.800000011920929,
                    1
                ],
                "metallicFactor" : 0.26237624883651733,
                "roughnessFactor" : 0.16336634755134583
            }
        },
        {
            "doubleSided" : true,
            "name" : "Material.001",
            "pbrMetallicRoughness" : {
                "baseColorFactor" : [
                    0.8000000715255737,
                    0.12108690291643143,
                    0.008158312179148197,
                    1
                ],
                "metallicFactor" : 0,
                "roughnessFactor" : 0.5
            }
        }
    ],
    "meshes" : [
        {
            "name" : "Curve.003",
            "primitives" : [
                {
                    "attributes" : {
                        "POSITION" : 0,
                        "NORMAL" : 1,
                        "TEXCOORD_0" : 2
                    },
                    "indices" : 3,
                    "material" : 0
                }
            ]
        },
        {
            "name" : "Curve.001",
            "primitives" : [
                {
                    "attributes" : {
                        "POSITION" : 4,
                        "NORMAL" : 5,
                        "TEXCOORD_0" : 6
                    },
                    "indices" : 7,
                    "material" : 1
                }
            ]
        }
    ],
    "accessors" : [
        {
            "bufferView" : 0,
            "componentType" : 5126,
            "count" : 33677,
            "max" : [
                0.05404018610715866,
                0.03999999910593033,
                0.01413777470588684
            ],
            "min" : [
                -0.03232186287641525,
                0,
                -0.022045820951461792
            ],
            "type" : "VEC3"
        },
        {
            "bufferView" : 1,
            "componentType" : 5126,
            "count" : 33677,
            "type" : "VEC3"
        },
        {
            "bufferView" : 2,
            "componentType" : 5126,
            "count" : 33677,
            "type" : "VEC2"
        },
        {
            "bufferView" : 3,
            "componentType" : 5123,
            "count" : 51420,
            "type" : "SCALAR"
        },
        {
            "bufferView" : 4,
            "componentType" : 5126,
            "count" : 16771,
            "max" : [
                0.006251081824302673,
                0.03999999910593033,
                0.0029205165337771177
            ],
            "min" : [
                -0.016551757231354713,
                0,
                -0.019588693976402283
            ],
            "type" : "VEC3"
        },
        {
            "bufferView" : 5,
            "componentType" : 5126,
            "count" : 16771,
            "type" : "VEC3"
        },
        {
            "bufferView" : 6,
            "componentType" : 5126,
            "count" : 16771,
            "type" : "VEC2"
        },
        {
            "bufferView" : 7,
            "componentType" : 5123,
            "count" : 25248,
            "type" : "SCALAR"
        }
    ],
    "bufferViews" : [
        {
            "buffer" : 0,
            "byteLength" : 404124,
            "byteOffset" : 0
        },
        {
            "buffer" : 0,
            "byteLength" : 404124,
            "byteOffset" : 404124
        },
        {
            "buffer" : 0,
            "byteLength" : 269416,
            "byteOffset" : 808248
        },
        {
            "buffer" : 0,
            "byteLength" : 102840,
            "byteOffset" : 1077664
        },
        {
            "buffer" : 0,
            "byteLength" : 201252,
            "byteOffset" : 1180504
        },
        {
            "buffer" : 0,
            "byteLength" : 201252,
            "byteOffset" : 1381756
        },
        {
            "buffer" : 0,
            "byteLength" : 134168,
            "byteOffset" : 1583008
        },
        {
            "buffer" : 0,
            "byteLength" : 50496,
            "byteOffset" : 1717176
        }
    ],
    "buffers" : [
        {
            "byteLength" : 1767672,
            "uri" : "data:application/octet-stream;base64,"
        }
    ]
}
